<?xml version="1.0" encoding="iso-8859-1"?>
<!-- Uploaded to: SVG Repo, www.svgrepo.com, Generator: SVG Repo Mixer Tools -->
<svg fill="#000000" height="800px" width="800px" version="1.1" id="Layer_1" xmlns="http://www.w3.org/2000/svg" xmlns:xlink="http://www.w3.org/1999/xlink" 
	 viewBox="0 0 330 330" xml:space="preserve">
<path id="XMLID_16_" d="M325.607,229.394l-75-75c-4.289-4.291-10.743-5.572-16.347-3.252c-5.605,2.322-9.26,7.792-9.26,13.858v60H30
	V15c0-8.284-6.716-15-15-15S0,6.716,0,15v225c0,8.284,6.716,15,15,15h210v60c0,6.067,3.654,11.537,9.26,13.858
	c1.855,0.769,3.805,1.142,5.737,1.142c3.903,0,7.74-1.524,10.609-4.394l75-75C331.465,244.749,331.465,235.251,325.607,229.394z
	 M255,278.787v-77.573L293.787,240L255,278.787z"/>
</svg>